
<svg
   xmlns:dc="http://purl.org/dc/elements/1.1/"
   xmlns:cc="http://creativecommons.org/ns#"
   xmlns:rdf="http://www.w3.org/1999/02/22-rdf-syntax-ns#"
   xmlns:svg="http://www.w3.org/2000/svg"
   xmlns="http://www.w3.org/2000/svg"
   id="svg2"
   viewBox="0 0 171 85"
   height="85"
   width="171"
   y="0"
   x="0"
   version="1.1">
  <metadata
     id="metadata87">
    <rdf:RDF>
      <cc:Work
         rdf:about="">
        <dc:format>image/svg+xml</dc:format>
        <dc:type
           rdf:resource="http://purl.org/dc/dcmitype/StillImage" />
        <dc:title></dc:title>
      </cc:Work>
    </rdf:RDF>
  </metadata>
  <defs
     id="defs4">
    <linearGradient
       y2="367.96301"
       x2="250.034"
       y1="296.50299"
       x1="249.89999"
       gradientUnits="userSpaceOnUse"
       id="Gradient_1">
      <stop
         id="stop10"
         stop-color="#1A5694"
         offset="0.031" />
      <stop
         id="stop12"
         stop-color="#89A5C2"
         offset="0.389" />
      <stop
         id="stop14"
         stop-color="#F8FFFF"
         offset="1" />
    </linearGradient>
    <filter
       id="Shadow_2">
      <feGaussianBlur
         id="feGaussianBlur17"
         stdDeviation="2.25"
         in="SourceAlpha" />
      <feOffset
         id="feOffset19"
         result="offsetblur"
         dy="2"
         dx="0" />
      <feFlood
         id="feFlood21"
         flood-color="#658BB2" />
      <feComposite
         id="feComposite23"
         operator="in"
         in2="offsetblur" />
    </filter>
    <filter
       id="Shadow_3">
      <feGaussianBlur
         id="feGaussianBlur26"
         stdDeviation="2.25"
         in="SourceAlpha" />
      <feOffset
         id="feOffset28"
         result="offsetblur"
         dy="2"
         dx="0" />
      <feFlood
         id="feFlood30"
         flood-color="#658BB2" />
      <feComposite
         id="feComposite32"
         operator="in"
         in2="offsetblur" />
    </filter>
  </defs>
  <g
     transform="translate(-176.79629,-291.31024)"
     id="g3471">
    <g
       id="g38"
       transform="translate(65.107016,4.2279106)">
      <path
         style="fill:url(#Gradient_1)"
         id="path40"
         d="m 255.173,296.563 -0.049,-0.011 c 12.178,1.6 22.851,13.151 25.96,26.188 1.346,5.645 1.211,6.286 1.416,11.079 -0.289,17.23 -10.963,35.755 -27.317,37.716 l -0.01,-0.053 -112.685,0 0,-0.045 c -18.213,-1.78 -29.145,-17.449 -29.988,-37.211 0.543,-20.047 12.025,-35.626 29.997,-37.726 l -0.009,0.063 112.685,0 z" />
      <path
         style="fill-opacity:0;stroke:#4877a7;stroke-width:1"
         id="path42"
         d="m 255.173,296.563 -0.049,-0.011 c 12.178,1.6 22.851,13.151 25.96,26.188 1.346,5.645 1.211,6.286 1.416,11.079 -0.289,17.23 -10.963,35.755 -27.317,37.716 l -0.01,-0.053 -112.685,0 0,-0.045 c -18.213,-1.78 -29.145,-17.449 -29.988,-37.211 0.543,-20.047 12.025,-35.626 29.997,-37.726 l -0.009,0.063 112.685,0 z" />
    </g>
    <g
       id="g44"
       transform="translate(64.707016,18.827911)">
      <path
         style="filter:url(#Shadow_2)"
         id="path46"
         fill="rgba(0,0,0,1)"
         d="m 216.983,292.603 0.279,1.583 9.838,55.927 0.103,0.587 -9.074,0 -0.068,-0.421 -4.758,-29.764 -14.71,32.284 -0.462,1.014 -0.45,-1.019 -14.297,-32.327 -5.306,29.82 -0.073,0.413 -9.146,0 0.117,-0.596 10.95,-55.928 0.305,-1.561 0.643,1.455 17.407,39.413 18.034,-39.419 0.668,-1.461 z m -62.291,4.835 c 6.095,0 10.872,2.978 14.278,8.883 l 0.248,0.428 -0.426,0.252 -6.275,3.719 -0.436,0.258 -0.252,-0.439 c -1.134,-1.967 -2.201,-3.235 -3.19,-3.812 -1.019,-0.653 -2.354,-0.984 -4.014,-0.984 -2.031,0 -3.697,0.569 -5.023,1.708 -1.305,1.101 -1.947,2.467 -1.947,4.134 0,2.262 1.717,4.122 5.267,5.58 l 5.111,2.091 c 4.236,1.712 7.35,3.813 9.335,6.312 1.999,2.515 2.998,5.597 2.997,9.226 0.001,4.847 -1.623,8.872 -4.865,12.044 -3.26,3.193 -7.315,4.792 -12.136,4.792 -4.57,0 -8.365,-1.361 -11.363,-4.084 -2.945,-2.717 -4.777,-6.529 -5.501,-11.417 l -0.069,-0.462 0.456,-0.1 7.836,-1.726 0.539,-0.119 0.065,0.548 c 0.345,2.929 0.942,4.934 1.768,6.009 1.497,2.078 3.669,3.112 6.567,3.112 2.282,0 4.156,-0.756 5.654,-2.275 1.499,-1.519 2.247,-3.44 2.247,-5.791 0,-0.944 -0.13,-1.804 -0.39,-2.581 -0.256,-0.77 -0.656,-1.478 -1.203,-2.127 -0.553,-0.658 -1.275,-1.28 -2.166,-1.863 -0.903,-0.592 -1.985,-1.16 -3.238,-1.7 l -4.95,-2.06 c -7.188,-3.038 -10.831,-7.543 -10.831,-13.476 0,-3.996 1.535,-7.353 4.585,-10.036 3.038,-2.695 6.82,-4.044 11.322,-4.044 z" />
      <path
         style="fill:#ffffff"
         id="path54"
         d="m 168.337,309.071 -6.275,3.719 q -1.76,-3.055 -3.353,-3.985 -1.661,-1.062 -4.284,-1.062 -3.22,0 -5.345,1.826 -2.125,1.793 -2.125,4.516 0,3.752 5.578,6.043 l 5.113,2.092 q 6.242,2.523 9.131,6.159 2.889,3.635 2.889,8.915 0,7.072 -4.715,11.687 -4.748,4.649 -11.787,4.649 -6.674,0 -11.024,-3.951 -4.283,-3.952 -5.346,-11.124 l 7.836,-1.726 q 0.532,4.516 1.86,6.242 2.39,3.32 6.972,3.32 3.62,0 6.01,-2.423 2.391,-2.424 2.391,-6.143 0,-1.494 -0.415,-2.739 -0.415,-1.245 -1.295,-2.291 -0.88,-1.046 -2.275,-1.959 -1.394,-0.913 -3.32,-1.743 l -4.947,-2.059 q -10.526,-4.449 -10.526,-13.016 0,-5.777 4.417,-9.662 4.416,-3.918 10.99,-3.918 8.865,0 13.845,8.633 z m 0.93,43.629 10.949,-55.928 17.857,40.43 18.496,-40.43 9.838,55.928 -8.052,0 -5.02,-31.4 -15.397,33.792 -14.959,-33.826 -5.593,31.434 z" />
      <path
         style="fill-opacity:0;stroke:#0a4065;stroke-width:1"
         id="path56"
         d="m 168.337,308.571 -6.275,3.719 q -1.76,-3.055 -3.353,-3.985 -1.661,-1.062 -4.284,-1.062 -3.22,0 -5.345,1.826 -2.125,1.793 -2.125,4.516 0,3.752 5.578,6.043 l 5.113,2.092 q 6.242,2.523 9.131,6.159 2.889,3.635 2.889,8.915 0,7.072 -4.715,11.687 -4.748,4.649 -11.787,4.649 -6.674,0 -11.024,-3.951 -4.283,-3.952 -5.346,-11.124 l 7.836,-1.726 q 0.532,4.516 1.86,6.242 2.39,3.32 6.972,3.32 3.62,0 6.01,-2.423 2.391,-2.424 2.391,-6.143 0,-1.494 -0.415,-2.739 -0.415,-1.245 -1.295,-2.291 -0.88,-1.046 -2.275,-1.959 -1.394,-0.913 -3.32,-1.743 l -4.947,-2.059 q -10.526,-4.449 -10.526,-13.016 0,-5.777 4.417,-9.662 4.416,-3.918 10.99,-3.918 8.865,0 13.845,8.633 z m 0.93,43.629 10.949,-55.928 17.857,40.43 18.496,-40.43 9.838,55.928 -8.052,0 -5.02,-31.4 -15.397,33.792 -14.959,-33.826 -5.593,31.434 z" />
    </g>
    <g
       id="g58"
       transform="translate(64.507016,6.4279106)">
      <path
         style="filter:url(#Shadow_3)"
         id="path60"
         fill="rgba(0,0,0,1)"
         d="m 240.839,312 c 3.427,0 6.287,0.32 8.6,0.97 2.135,0.677 4.058,1.885 5.758,3.612 2.837,2.813 4.26,6.269 4.26,10.339 0,3.099 -0.8,5.83 -2.394,8.168 -0.571,0.856 -1.227,1.666 -2.018,2.331 1.819,0.808 3.106,2.405 4.348,3.89 1.738,2.407 2.607,5.211 2.607,8.393 0,4.179 -1.546,7.725 -4.621,10.605 -1.847,1.773 -3.929,3.007 -6.255,3.705 -2.489,0.659 -5.59,0.987 -9.306,0.987 l -12.818,0 0,-53 11.839,0 z m 0.91,30.035 -3.618,0 0,14.634 4.525,0 c 3.572,0 6.164,-0.665 7.778,-1.962 1.7,-1.401 2.54,-3.156 2.54,-5.305 0,-2.085 -0.809,-3.823 -2.448,-5.249 -1.587,-1.397 -4.514,-2.118 -8.777,-2.118 z m -0.139,-21.89 -4.125,0 0,14.236 3.29,0 c 3.912,0.001 6.592,-0.698 8.046,-2.053 1.503,-1.385 2.248,-3.078 2.248,-5.114 0,-2.096 -0.773,-3.807 -2.33,-5.165 -1.48,-1.26 -3.853,-1.904 -7.129,-1.904 z" />
      <path
         style="fill:#ffffff"
         id="path62"
         d="m 229.5,312.5 11.339,0 q 5.076,0 8.449,0.946 3.084,0.979 5.557,3.491 4.112,4.078 4.112,9.984 0,4.502 -2.313,7.895 c -0.678,1.041 -1.519,1.953 -2.489,2.699 1.978,0.842 3.52,2.374 4.832,4.087 q 2.513,3.482 2.513,8.101 0,6.06 -4.467,10.244 -2.687,2.578 -6.037,3.582 -3.664,0.971 -9.178,0.971 l -12.318,0 0,-52 z m 12.249,29.035 -4.118,0 0,15.634 5.025,0 q 5.514,0 8.096,-2.076 2.722,-2.243 2.722,-5.691 0,-3.347 -2.617,-5.624 -2.548,-2.243 -9.108,-2.243 z m -0.139,-21.89 -4.625,0 0,15.236 3.79,0 q 6.039,0.001 8.384,-2.185 2.41,-2.219 2.41,-5.482 0,-3.36 -2.506,-5.546 -2.377,-2.023 -7.453,-2.023 z" />
      <path
         style="fill-opacity:0;stroke:#0a4065;stroke-width:1"
         id="path64"
         d="m 229.5,312.5 11.339,0 q 5.076,0 8.449,0.946 3.084,0.979 5.557,3.491 4.112,4.078 4.112,9.984 0,4.502 -2.313,7.895 c -0.678,1.041 -1.519,1.953 -2.489,2.699 1.978,0.842 3.52,2.374 4.832,4.087 q 2.513,3.482 2.513,8.101 0,6.06 -4.467,10.244 -2.687,2.578 -6.037,3.582 -3.664,0.971 -9.178,0.971 l -12.318,0 0,-52 z m 12.249,29.035 -4.118,0 0,15.634 5.025,0 q 5.514,0 8.096,-2.076 2.722,-2.243 2.722,-5.691 0,-3.347 -2.617,-5.624 -2.548,-2.243 -9.108,-2.243 z m -0.139,-21.89 -4.625,0 0,15.236 3.79,0 q 6.039,0.001 8.384,-2.185 2.41,-2.219 2.41,-5.482 0,-3.36 -2.506,-5.546 -2.377,-2.023 -7.453,-2.023 z" />
    </g>
    <g
       id="Layer_1"
       transform="translate(65.507016,6.0279106)">
      <g
         id="g67">
        <path
           d="m 170.298,286.5 57.603,0 c 5.412,0 9.799,4.477 9.799,10 l 0,0 c 0,5.523 -4.387,10 -9.799,10 l -57.603,0 c -5.411,0 -9.798,-4.477 -9.798,-10 l 0,0 c 0,-5.523 4.387,-10 9.798,-10 z"
           id="path69"
           style="fill:#00477e" />
        <path
           d="m 170.298,286.5 57.603,0 c 5.412,0 9.799,4.477 9.799,10 l 0,0 c 0,5.523 -4.387,10 -9.799,10 l -57.603,0 c -5.411,0 -9.798,-4.477 -9.798,-10 l 0,0 c 0,-5.523 4.387,-10 9.798,-10 z"
           id="path71"
           style="fill-opacity:0;stroke:#4877a7;stroke-width:1" />
      </g>
      <path
         d="m 169.048,290.243 0,10.746 3.99,0 0,1.776 -6.038,0 0,-12.522 z"
         id="path73"
         style="fill:#ffffff" />
      <path
         d="m 182.469,292.019 -5.441,0 0,3.009 5.283,0 0,1.776 -5.283,0 0,4.185 5.441,0 0,1.776 -7.489,0 0,-12.522 7.489,0 z"
         id="path75"
         style="fill:#ffffff" />
      <path
         d="m 185.158,302.765 0,-12.522 2.848,0 q 2.048,0 3.234,0.373 1.275,0.365 2.312,1.241 2.1,1.768 2.1,4.647 0,2.887 -2.188,4.671 -1.099,0.892 -2.303,1.241 -1.125,0.349 -3.19,0.349 z m 2.048,-1.776 0.923,0 q 1.38,0 2.294,-0.268 0.914,-0.284 1.652,-0.9 1.512,-1.273 1.512,-3.317 0,-2.06 -1.494,-3.341 -1.345,-1.144 -3.964,-1.144 l -0.923,0 z"
         id="path77"
         style="fill:#ffffff" />
      <path
         d="m 205.206,296.245 5.607,0 0,0.413 q 0,1.411 -0.36,2.498 -0.351,1.006 -1.186,1.881 -1.89,1.963 -4.808,1.963 -2.848,0 -4.878,-1.898 -2.03,-1.905 -2.03,-4.574 0,-2.725 2.065,-4.622 2.066,-1.906 5.028,-1.906 1.59,0 2.97,0.6 1.319,0.6 2.593,1.946 l -1.459,1.29 q -1.67,-2.052 -4.069,-2.052 -2.154,0 -3.613,1.371 -1.459,1.346 -1.459,3.373 0,2.093 1.626,3.447 1.521,1.257 3.296,1.257 1.512,0 2.716,-0.941 1.204,-0.949 1.345,-2.27 l -3.384,0 z"
         id="path79"
         style="fill:#ffffff" />
      <path
         d="m 220.877,292.019 -5.44,0 0,3.009 5.282,0 0,1.776 -5.282,0 0,4.185 5.44,0 0,1.776 -7.488,0 0,-12.522 7.488,0 z"
         id="path81"
         style="fill:#ffffff" />
      <path
         d="m 228.163,297.429 4.201,5.336 -2.505,0 -3.876,-5.126 -0.369,0 0,5.126 -2.048,0 0,-12.522 2.4,0 q 2.689,0 3.885,0.933 1.318,1.038 1.318,2.741 0,1.33 -0.826,2.287 -0.826,0.957 -2.18,1.225 z m -2.549,-1.436 0.651,0 q 2.909,0 2.909,-2.052 0,-1.922 -2.83,-1.922 l -0.73,0 z"
         id="path83"
         style="fill:#ffffff" />
    </g>
  </g>
</svg>
